<svg xmlns="http://www.w3.org/2000/svg" version="1.1" xmlns:xlink="http://www.w3.org/1999/xlink" xmlns:svgjs="http://svgjs.com/svgjs" width="1440" height="560" preserveAspectRatio="none" viewBox="0 0 1440 560"><g mask="url(&quot;#SvgjsMask1003&quot;)" fill="none"><path d="M773.19 560.73C945.72 507.85 991.92 20.81 1244.93 14.42 1497.95 8.03 1590.56 190.64 1716.68 193.62" stroke="rgba(42, 75, 202, 0.34)" stroke-width="2"></path><path d="M684.29 597.62C843.98 578.34 941.66 219.72 1204.72 219.3 1467.78 218.88 1583.58 438.61 1725.15 443.3" stroke="rgba(42, 75, 202, 0.34)" stroke-width="2"></path><path d="M675.61 628.98C782.81 580.87 731.79 244.45 941.24 241.23 1150.7 238.01 1335.85 369.11 1472.51 370.03" stroke="rgba(42, 75, 202, 0.34)" stroke-width="2"></path><path d="M289.24 595.64C488.64 561.67 581.6 75.57 904.97 70.74 1228.33 65.91 1363.43 198.85 1520.69 199.54" stroke="rgba(42, 75, 202, 0.34)" stroke-width="2"></path><path d="M192.39 667.04C330.78 657.03 426.31 388.3 671.59 387.07 916.87 385.84 911.19 457.07 1150.79 457.07 1390.39 457.07 1508.92 387.25 1629.99 387.07" stroke="rgba(42, 75, 202, 0.34)" stroke-width="2"></path></g><defs><mask id="SvgjsMask1003"><rect width="1440" height="560" fill="#ffffff"></rect></mask></defs></svg>