<svg xmlns="http://www.w3.org/2000/svg" version="1.1" xmlns:xlink="http://www.w3.org/1999/xlink" xmlns:svgjs="http://svgjs.com/svgjs" width="1440" height="560" preserveAspectRatio="none" viewBox="0 0 1440 560"><g mask="url(&quot;#SvgjsMask1012&quot;)" fill="none"><path d="M1302 384L1301 15" stroke-width="10" stroke="url(#SvgjsLinearGradient1013)" stroke-linecap="round" class="Up"></path><path d="M464 224L463 -153" stroke-width="10" stroke="url(#SvgjsLinearGradient1014)" stroke-linecap="round" class="Down"></path><path d="M1215 276L1214 537" stroke-width="10" stroke="url(#SvgjsLinearGradient1013)" stroke-linecap="round" class="Up"></path><path d="M1408 90L1407 489" stroke-width="8" stroke="url(#SvgjsLinearGradient1013)" stroke-linecap="round" class="Up"></path><path d="M915 315L914 83" stroke-width="8" stroke="url(#SvgjsLinearGradient1013)" stroke-linecap="round" class="Up"></path><path d="M32 36L31 -342" stroke-width="10" stroke="url(#SvgjsLinearGradient1014)" stroke-linecap="round" class="Down"></path><path d="M1355 270L1354 530" stroke-width="6" stroke="url(#SvgjsLinearGradient1014)" stroke-linecap="round" class="Down"></path><path d="M100 46L99 348" stroke-width="6" stroke="url(#SvgjsLinearGradient1014)" stroke-linecap="round" class="Down"></path><path d="M376 139L375 -266" stroke-width="10" stroke="url(#SvgjsLinearGradient1013)" stroke-linecap="round" class="Up"></path><path d="M19 158L18 -157" stroke-width="10" stroke="url(#SvgjsLinearGradient1014)" stroke-linecap="round" class="Down"></path><path d="M233 83L232 483" stroke-width="6" stroke="url(#SvgjsLinearGradient1014)" stroke-linecap="round" class="Down"></path><path d="M63 358L62 85" stroke-width="6" stroke="url(#SvgjsLinearGradient1014)" stroke-linecap="round" class="Down"></path><path d="M135 80L134 399" stroke-width="10" stroke="url(#SvgjsLinearGradient1014)" stroke-linecap="round" class="Down"></path><path d="M754 438L753 815" stroke-width="6" stroke="url(#SvgjsLinearGradient1014)" stroke-linecap="round" class="Down"></path><path d="M555 318L554 610" stroke-width="6" stroke="url(#SvgjsLinearGradient1014)" stroke-linecap="round" class="Down"></path><path d="M747 250L746 -24" stroke-width="6" stroke="url(#SvgjsLinearGradient1014)" stroke-linecap="round" class="Down"></path><path d="M612 153L611 -209" stroke-width="10" stroke="url(#SvgjsLinearGradient1013)" stroke-linecap="round" class="Up"></path><path d="M1333 352L1332 105" stroke-width="10" stroke="url(#SvgjsLinearGradient1013)" stroke-linecap="round" class="Up"></path><path d="M845 128L844 -77" stroke-width="8" stroke="url(#SvgjsLinearGradient1014)" stroke-linecap="round" class="Down"></path><path d="M930 404L929 753" stroke-width="6" stroke="url(#SvgjsLinearGradient1014)" stroke-linecap="round" class="Down"></path><path d="M898 389L897 537" stroke-width="10" stroke="url(#SvgjsLinearGradient1014)" stroke-linecap="round" class="Down"></path><path d="M668 83L667 398" stroke-width="8" stroke="url(#SvgjsLinearGradient1014)" stroke-linecap="round" class="Down"></path><path d="M920 214L919 -39" stroke-width="8" stroke="url(#SvgjsLinearGradient1013)" stroke-linecap="round" class="Up"></path><path d="M1267 288L1266 534" stroke-width="6" stroke="url(#SvgjsLinearGradient1014)" stroke-linecap="round" class="Down"></path><path d="M366 105L365 -59" stroke-width="10" stroke="url(#SvgjsLinearGradient1013)" stroke-linecap="round" class="Up"></path><path d="M186 368L185 125" stroke-width="6" stroke="url(#SvgjsLinearGradient1014)" stroke-linecap="round" class="Down"></path><path d="M37 391L36 139" stroke-width="6" stroke="url(#SvgjsLinearGradient1013)" stroke-linecap="round" class="Up"></path><path d="M1261 136L1260 388" stroke-width="6" stroke="url(#SvgjsLinearGradient1014)" stroke-linecap="round" class="Down"></path><path d="M1281 422L1280 251" stroke-width="10" stroke="url(#SvgjsLinearGradient1013)" stroke-linecap="round" class="Up"></path><path d="M1305 291L1304 487" stroke-width="10" stroke="url(#SvgjsLinearGradient1013)" stroke-linecap="round" class="Up"></path><path d="M286 372L285 685" stroke-width="6" stroke="url(#SvgjsLinearGradient1013)" stroke-linecap="round" class="Up"></path><path d="M1113 457L1112 842" stroke-width="8" stroke="url(#SvgjsLinearGradient1014)" stroke-linecap="round" class="Down"></path><path d="M532 340L531 602" stroke-width="10" stroke="url(#SvgjsLinearGradient1013)" stroke-linecap="round" class="Up"></path><path d="M400 506L399 258" stroke-width="6" stroke="url(#SvgjsLinearGradient1013)" stroke-linecap="round" class="Up"></path><path d="M1154 198L1153 507" stroke-width="6" stroke="url(#SvgjsLinearGradient1014)" stroke-linecap="round" class="Down"></path><path d="M635 388L634 593" stroke-width="8" stroke="url(#SvgjsLinearGradient1013)" stroke-linecap="round" class="Up"></path></g><defs><mask id="SvgjsMask1012"><rect width="1440" height="560" fill="#ffffff"></rect></mask><linearGradient x1="0%" y1="100%" x2="0%" y2="0%" id="SvgjsLinearGradient1013"><stop stop-color="rgba(223, 228, 253, 0)" offset="0"></stop><stop stop-color="rgba(223, 228, 253, 0.37)" offset="1"></stop></linearGradient><linearGradient x1="0%" y1="0%" x2="0%" y2="100%" id="SvgjsLinearGradient1014"><stop stop-color="rgba(223, 228, 253, 0)" offset="0"></stop><stop stop-color="rgba(223, 228, 253, 0.37)" offset="1"></stop></linearGradient></defs></svg>